<svg width="24" height="24" viewBox="0 0 24 24" fill="none">
<path d="M11 4H4A2 2 0 0 0 2 6V18A2 2 0 0 0 4 20H16A2 2 0 0 0 18 18V11" stroke="#4E6C50" stroke-width="2" stroke-linecap="round" stroke-linejoin="round"/>
<path d="M18.5 2.50001C18.8978 2.10218 19.4374 1.87869 20 1.87869C20.5626 1.87869 21.1022 2.10218 21.5 2.50001C21.8978 2.89783 22.1213 3.4374 22.1213 4.00001C22.1213 4.56262 21.8978 5.10218 21.5 5.50001L12 15L8 16L9 12L18.5 2.50001Z" stroke="#4E6C50" stroke-width="2" stroke-linecap="round" stroke-linejoin="round"/>
</svg>
